<?xml version="1.0" encoding="UTF-8" standalone="no"?>
<!DOCTYPE svg PUBLIC "-//W3C//DTD SVG 1.1//EN" "http://www.w3.org/Graphics/SVG/1.1/DTD/svg11.dtd">
<svg width="100%" height="100%" viewBox="0 0 500 500" version="1.1" xmlns="http://www.w3.org/2000/svg" xmlns:xlink="http://www.w3.org/1999/xlink" xml:space="preserve" xmlns:serif="http://www.serif.com/" style="fill-rule:evenodd;clip-rule:evenodd;stroke-linejoin:round;stroke-miterlimit:2;">
    <rect x="0" y="0" width="500" height="500" style="fill:url(#_Linear1);"/>
    <g transform="matrix(1,0,0,1,-5.40049,48.7399)">
        <rect x="100.227" y="257.473" width="97.48" height="97.48" style="fill:white;fill-opacity:0.6;"/>
        <g transform="matrix(1,0,0,1,0,-104.953)">
            <rect x="100.227" y="257.473" width="97.48" height="97.48" style="fill:white;"/>
        </g>
        <g transform="matrix(1,0,0,1,0,-209.905)">
            <rect x="100.227" y="257.473" width="97.48" height="97.48" style="fill:white;"/>
        </g>
        <g transform="matrix(1,0,0,1,106.328,0)">
            <rect x="100.227" y="257.473" width="97.48" height="97.48" style="fill:white;fill-opacity:0.25;"/>
        </g>
        <g transform="matrix(1,0,0,1,106.328,-104.953)">
            <rect x="100.227" y="257.473" width="97.48" height="97.48" style="fill:white;fill-opacity:0.6;"/>
        </g>
        <g transform="matrix(1,0,0,1,106.328,-209.905)">
            <rect x="100.227" y="257.473" width="97.48" height="97.48" style="fill:white;"/>
        </g>
        <g transform="matrix(1,0,0,1,212.868,-104.953)">
            <rect x="100.227" y="257.473" width="97.48" height="97.48" style="fill:white;fill-opacity:0.25;"/>
        </g>
        <g transform="matrix(1,0,0,1,212.868,-209.905)">
            <rect x="100.227" y="257.473" width="97.48" height="97.48" style="fill:white;fill-opacity:0.6;"/>
        </g>
    </g>
    <defs>
        <linearGradient id="_Linear1" x1="0" y1="0" x2="1" y2="0" gradientUnits="userSpaceOnUse" gradientTransform="matrix(-556.288,-476.674,476.674,-556.288,517.18,512.503)"><stop offset="0" style="stop-color:rgb(17,58,79);stop-opacity:1"/><stop offset="1" style="stop-color:rgb(0,153,157);stop-opacity:1"/></linearGradient>
    </defs>
</svg>
