<?xml version="1.0" encoding="UTF-8" standalone="no"?>
<!DOCTYPE svg PUBLIC "-//W3C//DTD SVG 1.1//EN" "http://www.w3.org/Graphics/SVG/1.1/DTD/svg11.dtd">
<svg width="100%" height="100%" viewBox="0 0 300 300" version="1.1" xmlns="http://www.w3.org/2000/svg" xmlns:xlink="http://www.w3.org/1999/xlink" xml:space="preserve" xmlns:serif="http://www.serif.com/" style="fill-rule:evenodd;clip-rule:evenodd;stroke-linejoin:round;stroke-miterlimit:2;">
    <g>
        <path d="M79.235,271.686C37.38,247.273 9.235,201.897 9.235,150C9.235,72.31 72.31,9.235 150,9.235C227.69,9.235 290.765,72.31 290.765,150C290.765,220.621 238.648,279.165 170.799,289.236L168.315,290.765L166.678,289.785C168.061,289.621 169.438,289.438 170.799,289.236L172.277,288.325C176.428,286.428 178.805,284.937 179.409,283.853L182.465,278.838L187.106,277.753C188.54,277.392 190.012,276.488 191.521,275.042L199.898,266.639L203.746,263.928L205.897,261.082L210.538,258.1L213.708,254.982C214.689,251.368 216.575,248.025 219.368,244.952L224.688,239.124L227.405,233.025L231.593,228.687L242.234,203.341L244.384,202.257L246.196,199.275C247.629,195.661 248.346,192.95 248.346,191.143L248.346,186.67L249.478,182.061L249.931,176.504C249.931,170.54 249.478,166.158 248.573,163.357C248.346,162.182 247.478,161.098 245.969,160.104C248.46,157.845 249.705,155.811 249.705,154.004C249.705,153.643 249.554,153.168 249.252,152.581C248.95,151.994 248.403,151 247.611,149.599C246.818,148.199 245.894,146.324 244.837,143.974L243.252,140.586L239.743,138.146L232.951,134.757L229.782,132.318L224.009,131.233L218.122,127.303L210.538,127.032L207.482,125.947L200.124,126.218L197.973,125.134L195.257,125.134L197.747,121.474L210.991,97.619L213.934,93.417C216.198,90.345 218.16,86.211 219.82,81.015C221.481,75.82 222.311,71.279 222.311,67.394C222.311,66.851 222.179,66.377 221.915,65.97C221.65,65.564 221.254,65.36 220.726,65.36C219.745,65.36 217.745,66.671 214.727,69.291L212.802,70.918L210.312,70.104L207.482,71.189L199.671,69.833L191.521,70.375L188.012,68.749L174.315,69.291L167.863,67.394L159.939,73.493L151.449,79.05C149.713,79.863 148.845,81.309 148.845,83.387C148.845,85.466 149.864,86.505 151.902,86.505C153.109,86.505 155.411,85.285 158.807,82.845C160.09,81.942 161.184,81.49 162.09,81.49L162.316,81.49L166.957,82.032L171.598,82.845L185.521,84.878C188.012,84.427 189.898,84.201 191.181,84.201C195.106,84.201 197.068,85.42 197.068,87.86C197.068,89.306 196.841,90.707 196.388,92.062L194.011,97.89L192.2,104.261L186.201,113.206L185.295,115.917L186.427,117.273L185.295,120.119L184.503,123.101L182.239,126.218L181.107,130.691C180.579,132.137 179.786,133.402 178.73,134.486L171.372,139.772L167.863,146.143L162.769,148.718L160.618,153.733L159.26,156.173L159.26,158.342L161.637,158.342L168.089,155.902L171.372,155.089L182.692,145.601L186.653,145.601L190.389,145.33C191.219,145.51 191.898,146.053 192.427,146.956C194.011,146.233 195.483,145.872 196.841,145.872C198.954,145.872 201.407,146.55 204.199,147.905L205.218,145.601L206.803,145.872L208.387,143.432L209.633,143.432L210.991,149.26C213.406,150.435 216.5,153.101 220.273,157.257C220.801,155.269 221.783,153.914 223.216,153.191L225.141,154.546L224.462,156.444L226.046,155.902L227.405,160.104L226.273,161.459C227.48,162.182 228.084,162.995 228.084,163.899C228.084,164.893 227.556,166.384 226.499,168.372C227.405,169.998 227.857,171.037 227.857,171.489L229.329,177.317L231.14,182.875L230.008,188.161L230.461,189.245L231.819,191.143C231.442,193.763 230.687,195.977 229.555,197.784L229.555,200.63C229.555,206.233 228.084,211.88 225.141,217.573L216.99,232.211L216.085,234.787L216.99,235.058L217.217,237.227L206.123,249.967L206.803,252.543C205.52,253.808 204.576,254.44 203.973,254.44L202.388,253.898L199.671,258.1L191.521,264.47L184.05,270.027L178.956,271.112L172.051,275.314L169.221,275.314L166.051,277.482L158.354,280.329C157.147,280.6 156.543,281.684 156.543,283.582C156.543,285.208 157.222,286.609 158.58,287.783L160.165,287.783C162.052,287.783 164.165,288.416 166.504,289.681L166.678,289.785C161.204,290.433 155.64,290.765 150,290.765C128.441,290.765 108.007,285.908 89.737,277.23C90.722,276.749 91.725,276.019 92.745,275.042L101.121,266.639L104.97,263.928L107.121,261.082L111.762,258.1L114.931,254.982C115.912,251.368 117.799,248.025 120.591,244.952L125.911,239.124L128.628,233.025L132.817,228.687L143.457,203.341L145.608,202.257L147.419,199.275C148.853,195.661 149.57,192.95 149.57,191.143L149.57,186.67L150.702,182.061L151.155,176.504C151.155,170.54 150.702,166.158 149.796,163.357C149.57,162.182 148.702,161.098 147.193,160.104C149.683,157.845 150.928,155.811 150.928,154.004C150.928,153.643 150.777,153.168 150.475,152.581C150.174,151.994 149.626,151 148.834,149.599C148.042,148.199 147.117,146.324 146.061,143.974L144.476,140.586L140.967,138.146L134.175,134.757L131.005,132.318L125.232,131.233L119.346,127.303L111.762,127.032L108.705,125.947L101.348,126.218L99.197,125.134L96.48,125.134L98.97,121.474L112.215,97.619L115.158,93.417C117.422,90.345 119.384,86.211 121.044,81.015C122.704,75.82 123.534,71.279 123.534,67.394C123.534,66.851 123.402,66.377 123.138,65.97C122.874,65.564 122.478,65.36 121.95,65.36C120.969,65.36 118.969,66.671 115.95,69.291L114.026,70.918L111.535,70.104L108.705,71.189L100.895,69.833L92.745,70.375L89.235,68.749L75.538,69.291L69.086,67.394L61.162,73.493L52.672,79.05C50.937,79.863 50.069,81.309 50.069,83.387C50.069,85.466 51.088,86.505 53.125,86.505C54.333,86.505 56.634,85.285 60.03,82.845C61.313,81.942 62.407,81.49 63.313,81.49L63.539,81.49L68.181,82.032L72.822,82.845L86.745,84.878C89.235,84.427 91.122,84.201 92.405,84.201C96.329,84.201 98.291,85.42 98.291,87.86C98.291,89.306 98.065,90.707 97.612,92.062L95.235,97.89L93.424,104.261L87.424,113.206L86.519,115.917L87.651,117.273L86.519,120.119L85.726,123.101L83.462,126.218L82.33,130.691C81.802,132.137 81.01,133.402 79.953,134.486L72.595,139.772L69.086,146.143L63.992,148.718L61.842,153.733L60.483,156.173L60.483,158.342L62.86,158.342L69.313,155.902L72.595,155.089L83.915,145.601L87.877,145.601L91.613,145.33C92.443,145.51 93.122,146.053 93.65,146.956C95.235,146.233 96.706,145.872 98.065,145.872C100.178,145.872 102.63,146.55 105.423,147.905L106.441,145.601L108.026,145.872L109.611,143.432L110.856,143.432L112.215,149.26C114.629,150.435 117.724,153.101 121.497,157.257C122.025,155.269 123.006,153.914 124.44,153.191L126.364,154.546L125.685,156.444L127.27,155.902L128.628,160.104L127.496,161.459C128.704,162.182 129.307,162.995 129.307,163.899C129.307,164.893 128.779,166.384 127.723,168.372C128.628,169.998 129.081,171.037 129.081,171.489L130.553,177.317L132.364,182.875L131.232,188.161L131.685,189.245L133.043,191.143C132.666,193.763 131.911,195.977 130.779,197.784L130.779,200.63C130.779,206.233 129.307,211.88 126.364,217.573L118.214,232.211L117.308,234.787L118.214,235.058L118.44,237.227L107.347,249.967L108.026,252.543C106.743,253.808 105.8,254.44 105.196,254.44L103.612,253.898L100.895,258.1L92.745,264.47L85.273,270.027L80.18,271.112L79.235,271.686C82.647,273.676 86.15,275.527 89.737,277.23C89.264,277.462 88.795,277.636 88.33,277.753L83.689,278.838L80.632,283.853C80.029,284.937 77.651,286.428 73.501,288.325L69.539,290.765L67.728,289.681C65.388,288.416 63.275,287.783 61.389,287.783L59.804,287.783C58.446,286.609 57.766,285.208 57.766,283.582C57.766,281.684 58.37,280.6 59.578,280.329L67.275,277.482L70.445,275.314L73.274,275.314L79.235,271.686Z" style="fill:rgb(235,235,235);"/>
    </g>
</svg>
