<?xml version="1.0" encoding="UTF-8" standalone="no"?>
<!DOCTYPE svg PUBLIC "-//W3C//DTD SVG 1.1//EN" "http://www.w3.org/Graphics/SVG/1.1/DTD/svg11.dtd">
<svg width="100%" height="100%" viewBox="0 0 62 55" version="1.1" xmlns="http://www.w3.org/2000/svg" xmlns:xlink="http://www.w3.org/1999/xlink" xml:space="preserve" xmlns:serif="http://www.serif.com/" style="fill-rule:evenodd;clip-rule:evenodd;stroke-linejoin:round;stroke-miterlimit:2;">
    <g transform="matrix(1,0,0,1,-2487.33,-4007.78)">
        <g id="Group_7390">
            <path id="Path_11891" d="M2532.65,4025.29C2532.65,4024.58 2532.07,4024 2531.37,4024L2504.29,4024C2503.58,4024 2503,4024.58 2503,4025.29L2503,4045.27C2503,4045.27 2503,4045.27 2503,4045.27C2503,4045.98 2503.58,4046.56 2504.29,4046.56L2531.37,4046.56C2532.07,4046.56 2532.65,4045.98 2532.65,4045.27C2532.65,4045.27 2532.65,4045.27 2532.65,4045.27L2532.65,4025.29ZM2530.08,4026.58L2530.08,4037.39L2527.91,4035.58C2527.43,4035.18 2526.73,4035.18 2526.26,4035.58L2522.78,4038.46L2514.7,4031.44C2514.22,4031.03 2513.52,4031.02 2513.04,4031.41L2505.58,4037.45L2505.58,4026.58L2530.08,4026.58ZM2505.58,4043.98L2505.58,4040.77L2513.82,4034.09L2521.92,4041.12C2522.39,4041.54 2523.1,4041.55 2523.59,4041.14L2527.07,4038.24L2530.07,4040.75L2530.07,4043.98L2505.58,4043.98ZM2519.78,4030.96C2519.78,4030.95 2519.78,4030.94 2519.78,4030.92C2519.78,4029.61 2520.86,4028.52 2522.18,4028.52C2523.49,4028.52 2524.58,4029.61 2524.58,4030.92C2524.58,4032.24 2523.49,4033.32 2522.18,4033.32C2520.87,4033.33 2519.8,4032.27 2519.78,4030.96L2519.78,4030.96Z" style="fill:rgb(211,210,210);fill-rule:nonzero;"/>
        </g>
    </g>
</svg>
