<svg xmlns="http://www.w3.org/2000/svg" viewBox="0 0 76.9 45.81"><defs><style>.cls-1{fill:#fd7278;}</style></defs><g id="Layer_2" data-name="Layer 2"><g id="Layer_1-2" data-name="Layer 1"><path class="cls-1" d="M1.51,41.92Q0,38,0,29.47a79.12,79.12,0,0,1,3.6-24A7.33,7.33,0,0,1,6.47,1.31,10.16,10.16,0,0,1,12.06,0a5.39,5.39,0,0,1,2.72.49,2,2,0,0,1,.78,1.85,36.57,36.57,0,0,1-1.46,7c-.65,2.59-1.16,4.85-1.55,6.76a66.77,66.77,0,0,0-1,7.15,53,53,0,0,1,6.28-12.84,29.44,29.44,0,0,1,7.49-7.83A13.13,13.13,0,0,1,32.58,0Q36,0,37.4,1.56a6.89,6.89,0,0,1,1.41,4.76q0,3.12-1.85,11.29c-.52,2.33-.87,4.08-1.07,5.25q4.86-12,10.8-17.41T57.78,0Q64.1,0,64.1,6.32,64.1,10.11,62,20q-1.85,8.46-1.85,11.18c0,2.6.94,3.89,2.82,3.89,1.3,0,3-2,4.11-3.35a33.21,33.21,0,0,0,4.6-7.69,3.45,3.45,0,0,1,2.2-2,2.25,2.25,0,0,1,2.22.63c.67.63.76,2,.83,3.36a20.23,20.23,0,0,1-1.77,7.8c-2.41,4.23-3.3,5.55-6.18,8.17a15.63,15.63,0,0,1-10.68,3.77c-3.3,0-5.8-1-7.49-2.87s-2.53-4.68-2.53-8.31a60.76,60.76,0,0,1,1.37-9.73,50.64,50.64,0,0,0,1.26-8.46c0-1-.36-1.56-1.07-1.56s-2,1.09-3.6,3.26a48.24,48.24,0,0,0-4.67,8.61A70.48,70.48,0,0,0,37.74,38c-.72,3.11-1.54,5.19-2.48,6.23a5.86,5.86,0,0,1-4.52,1.55,5.16,5.16,0,0,1-4.82-3.06,15.85,15.85,0,0,1-1.6-7.44,83.87,83.87,0,0,1,1-10.7q.78-6.22.78-8.17c0-1-.36-1.56-1.07-1.56q-1.47,0-3.7,3.5a51,51,0,0,0-4.33,9A86.28,86.28,0,0,0,13.62,38c-.72,3-1.54,5.11-2.48,6.18a5.6,5.6,0,0,1-4.43,1.6C4.25,45.81,2.51,44.52,1.51,41.92Z"/></g></g></svg>