<svg xmlns="http://www.w3.org/2000/svg" width="30" height="30" viewBox="0 0 30 30"><defs><style>.a{fill:none;}</style></defs><g transform="translate(-7236 5209)"><rect class="a" width="30" height="30" transform="translate(7236 -5209)"/><path d="M19.393,53.712q-.066.6.144.641t.409-.221L21.238,52.6q.939-1.116,2-2.154a40.109,40.109,0,0,1,3.436-2.994q1.756-1.359,1.58-.939a7.715,7.715,0,0,1-1.624,2.176,17.191,17.191,0,0,0-1.69,1.911q-1.524,2.055-2.784,3.778a31.183,31.183,0,0,0-2.231,3.513q-.265.464-.928.088a4.054,4.054,0,0,1-1.259-1.215,3.083,3.083,0,0,1-.585-1.569,10.452,10.452,0,0,1-.055-1.7,14.244,14.244,0,0,1,.674-3.656q.608-1.955,1.2-3.391.265-.619.066-.608a.593.593,0,0,0-.265.055,19.917,19.917,0,0,0-4.75,5.612,34.149,34.149,0,0,0-2.7,5.766q-.265.707-.2.685V58a1.612,1.612,0,0,1-1.425-.287,1.788,1.788,0,0,1-.895-1.149q-.4-2.187,1.171-5.976a44.344,44.344,0,0,1,2.651-5.579q.376-.641.221-.74t-.221-.033a22.393,22.393,0,0,0-5.479,6.429q-2.585,4.264-3.977,6.628a4.033,4.033,0,0,0-.365.862q-.166.53-.365.53A3.585,3.585,0,0,1,.9,58.208a1.356,1.356,0,0,1-.729-1.6,29.973,29.973,0,0,1,1.657-5.8q1.038-2.53,3.248-7.832.353-.862,1.856.508T8.3,45.161a3.833,3.833,0,0,0-.177.353,4.393,4.393,0,0,1-.641.84A17.605,17.605,0,0,0,4.911,50.3a24.805,24.805,0,0,0-1.6,4.143q-.044.133.022.166t.2-.166q.84-1.5,2.154-3.7t2.64-4.3q1.326-2.1,2.43-3.712a12.386,12.386,0,0,1,1.524-1.966q.464-.376,2.43.663t1.878,2.033a12.423,12.423,0,0,1-1.624,2.872,30.894,30.894,0,0,0-2.706,5.126q-.11.221-.022.287t.221-.155a62.91,62.91,0,0,1,3.535-5.49,26.936,26.936,0,0,1,2.7-3.391q.4-.376,2.033.674a7.612,7.612,0,0,1,2.209,1.911q.221.353-1.536,3.027A11.684,11.684,0,0,0,19.393,53.712Z" transform="translate(7236.797 -5243.674)"/></g></svg>