<svg xmlns="http://www.w3.org/2000/svg" width="30" height="30" viewBox="0 0 30 30"><defs><style>.a{fill:none;}</style></defs><g transform="translate(-7236 5209)"><rect class="a" width="30" height="30" transform="translate(7236 -5209)"/><path d="M722.635,4920.1a11.022,11.022,0,0,0-1.424-.726,10.8,10.8,0,0,1-1.452-.742c-.052-.063-.267-.527-.515-1.065-.438-.948-1.1-2.383-1.817-3.7a1.288,1.288,0,0,0-1.276-.7c-2.432.01-4.2.009-6.29.008h-12.4c-.44,0-.5.054-.5.482v.359q0,.41,0,.822c0,.051,0,.092,0,.124v11.213a.614.614,0,0,0-.007.12c0,.079,0,.158,0,.237l0,.11v.8c0,.056,0,.111,0,.167a.406.406,0,0,0,.09.307.411.411,0,0,0,.307.095c.487-.007.974-.009,1.468-.007h.725c.355,0,.355,0,.453.321a4.173,4.173,0,0,0,8.007-.168c.034-.129.044-.158.145-.158h0l.721,0c.878,0,.878,0,1.495,0l1.108,0h0c.086,0,.116.018.147.129a4.569,4.569,0,0,0,.167.516,4.14,4.14,0,0,0,4.915,2.454,4.046,4.046,0,0,0,2.981-2.958c.037-.126.068-.143.184-.141.531.008,1.964,0,2.126,0a1.068,1.068,0,0,0,1.176-1.16q0-1.532,0-3.067,0-1.323,0-2.645A1.16,1.16,0,0,0,722.635,4920.1Zm-6.967,9.031a2.044,2.044,0,0,1-2.075-2.075,2.041,2.041,0,0,1,2.051-2.052h.008a2.036,2.036,0,0,1,2.074,2.064A2.042,2.042,0,0,1,715.668,4929.127Zm5.4-7.351c0,.687,0,1.374,0,2.062q0,.8,0,1.6c0,.416-.254.457-.922.461-.092,0-.187,0-.283,0-.151,0-.206-.037-.256-.2a4.074,4.074,0,0,0-2.31-2.481,4.259,4.259,0,0,0-1.664-.344,3.975,3.975,0,0,0-1.754.4,4.085,4.085,0,0,0-2.151,2.412c-.054.157-.094.2-.252.205l-.658,0c-.914,0-.914,0-1.5,0l-1.139,0h0c-.134,0-.179-.021-.232-.161a4.078,4.078,0,0,0-3.525-2.82,4.16,4.16,0,0,0-4.367,2.768c-.06.179-.119.214-.291.217-.346,0-.5-.006-.806-.006v-10.622h8.922l2.789,0c1.1.01,3.865.007,4.946,0h0a.288.288,0,0,1,.294.139c1.033,1.757,2.6,4.881,2.62,4.912l.015.029.027.018a7.961,7.961,0,0,0,1.183.551,7.833,7.833,0,0,1,1.16.539A.321.321,0,0,1,721.069,4921.776Zm-15.594,6.729a2.065,2.065,0,0,1-1.465.624,2.108,2.108,0,0,1-1.5-.6,1.979,1.979,0,0,1-.6-1.4,2.05,2.05,0,0,1,2.061-2.12h.023a2.072,2.072,0,0,1,2.069,2.042A2.037,2.037,0,0,1,705.475,4928.5Z" transform="translate(6541.542 -10116.018)"/></g></svg>