<svg xmlns="http://www.w3.org/2000/svg" width="30" height="30" viewBox="0 0 30 30"><defs><style>.a{fill:none;}</style></defs><g transform="translate(-7236 5209)"><rect class="a" width="30" height="30" transform="translate(7236 -5209)"/><path d="M0,1.53V5.335A1.536,1.536,0,0,0,1.538,6.866H18.76A1.536,1.536,0,0,0,20.3,5.336V1.53A1.536,1.536,0,0,0,18.76,0H1.538A1.536,1.536,0,0,0,0,1.53M18.038,4.607H2.259V2.258H18.038ZM15.63,10.323a1.015,1.015,0,0,1-1.015,1.015H1.015a1.015,1.015,0,1,1,0-2.03h13.6a1.015,1.015,0,0,1,1.015,1.015m3.653,3.518H1.015a1.015,1.015,0,0,0,0,2.03H19.283a1.015,1.015,0,0,0,0-2.03" transform="translate(7240.669 -5202.192)"/></g></svg>