<svg xmlns="http://www.w3.org/2000/svg" width="30" height="30" viewBox="0 0 30 30"><defs><style>.a{fill:none;}</style></defs><g transform="translate(-7236 5209)"><rect class="a" width="30" height="30" transform="translate(7236 -5209)"/><path d="M18.534,0H3.823A3.834,3.834,0,0,0,0,3.823v8.4a3.834,3.834,0,0,0,3.823,3.823H18.534a3.835,3.835,0,0,0,3.823-3.823v-8.4A3.835,3.835,0,0,0,18.534,0m1.879,12.227a1.881,1.881,0,0,1-1.879,1.879H3.823a1.881,1.881,0,0,1-1.879-1.879v-8.4A1.881,1.881,0,0,1,3.823,1.944H18.534a1.881,1.881,0,0,1,1.879,1.879ZM13.921,7.4a.865.865,0,0,1,0,1.247l-3.254,3.129a.865.865,0,1,1-1.2-1.247l2.606-2.506L9.467,5.52a.865.865,0,0,1,1.2-1.248Z" transform="translate(7239.631 -5202)"/></g></svg>