<svg xmlns="http://www.w3.org/2000/svg" width="80" height="80" viewBox="0 0 80 80">
  <g id="Group_7539" data-name="Group 7539" transform="translate(4103 13490)">
    <path id="Path_12036" data-name="Path 12036" d="M1653.972,3168.893a1.733,1.733,0,0,1-1.733,1.733h-4.446a1.733,1.733,0,0,1,0-3.465h4.446A1.733,1.733,0,0,1,1653.972,3168.893Zm11.06,4.851a4.39,4.39,0,0,1-4.389,4.389H1639.39a4.39,4.39,0,0,1-4.39-4.389v-44.355a4.39,4.39,0,0,1,4.39-4.389h21.253a4.39,4.39,0,0,1,4.389,4.389Zm-25.412-44.124v30.61h20.791v-30.61Zm20.791,43.893v-9.818H1639.62v9.818Z" transform="translate(-5713.486 -16601.037)"/>
    <rect id="Rectangle_3486" data-name="Rectangle 3486" width="80" height="80" transform="translate(-4103 -13490)" fill="none"/>
  </g>
</svg>
