<svg xmlns="http://www.w3.org/2000/svg" width="30" height="30" viewBox="0 0 30 30"><defs><style>.a{fill:none;}.b{fill:#383f47;}</style></defs><g transform="translate(-7236 5209)"><rect class="a" width="30" height="30" transform="translate(7236 -5209)"/><path class="b" d="M16.663,6.973a4.761,4.761,0,0,1,1.106,3.735,3.783,3.783,0,0,1-3.945,3.562,1.278,1.278,0,0,0-.148,0v.664a1.094,1.094,0,0,1-2.188,0v-.882c0-.9.376-1.975,2.336-1.975a1.612,1.612,0,0,0,1.755-1.635,2.624,2.624,0,0,0-.562-2.022,3.205,3.205,0,0,0-2.507-.883c-2.475,0-2.546,1.6-2.546,1.783a1.094,1.094,0,0,1-2.188,0c0-1.1.851-3.971,4.734-3.971a5.283,5.283,0,0,1,4.153,1.619m-4.153,9.99a1.368,1.368,0,1,0,.969.4,1.386,1.386,0,0,0-.969-.4m12.653-4.382A12.582,12.582,0,1,1,12.582,0,12.6,12.6,0,0,1,25.163,12.582m-2.188,0A10.393,10.393,0,1,0,12.582,22.975,10.405,10.405,0,0,0,22.975,12.582" transform="translate(7238.312 -5206.475)"/></g></svg>