<svg xmlns="http://www.w3.org/2000/svg" width="30" height="30" viewBox="0 0 30 30"><defs><style>.a{fill:none;}</style></defs><g transform="translate(-7236 5209)"><rect class="a" width="30" height="30" transform="translate(7236 -5209)"/><path d="M25.063,14.4a1.11,1.11,0,0,1-1.09,1.129H18.854a1.061,1.061,0,0,1-1.028-.72l-.817-2.379-2.66,9.347a1.094,1.094,0,0,1-1.045.809l-.033,0a1.1,1.1,0,0,1-1.03-.879L8.723,5.93l-2.13,8.78a1.066,1.066,0,0,1-1.057.819H1.09a1.13,1.13,0,0,1,0-2.259h3.6L7.71.819A1.071,1.071,0,0,1,8.777,0,1.1,1.1,0,0,1,9.828.874l3.6,16.14,2.443-8.589a1.1,1.1,0,0,1,1.018-.818,1.076,1.076,0,0,1,1.056.738l1.679,4.926h4.347a1.11,1.11,0,0,1,1.09,1.129" transform="translate(7238.444 -5204.691)"/></g></svg>