<svg xmlns="http://www.w3.org/2000/svg" width="30" height="30" viewBox="0 0 30 30"><defs><style>.a{fill:none;}</style></defs><g transform="translate(-7236 5209)"><rect class="a" width="30" height="30" transform="translate(7236 -5209)"/><path d="M2307.753,4245.89a4.64,4.64,0,0,0,1.624-3.246,4.5,4.5,0,0,0-1.8-3.494c-.013-.013-.027-.023-.041-.034a4.359,4.359,0,0,0-3.544-1.055,4.713,4.713,0,0,0-2.8,1.824,11.67,11.67,0,0,0-8.011,0,4.713,4.713,0,0,0-2.8-1.824,4.36,4.36,0,0,0-3.544,1.055c-.014.011-.027.021-.041.034a4.506,4.506,0,0,0-1.8,3.494,4.645,4.645,0,0,0,1.624,3.246,11.683,11.683,0,0,0,1.775,12.678c-.015.02-.033.036-.048.058l-1.683,2.53a1.161,1.161,0,0,0,1.933,1.287l1.51-2.27a11.629,11.629,0,0,0,14.2-.035l1.533,2.3a1.161,1.161,0,1,0,1.933-1.287l-1.683-2.53a1.152,1.152,0,0,0-.081-.1,11.684,11.684,0,0,0,1.741-12.638Zm-3.336-5.546a2.16,2.16,0,0,1,1.66.578,2.332,2.332,0,0,1,.979,1.669,2.113,2.113,0,0,1-.541,1.25,11.782,11.782,0,0,0-3.159-2.895A2.127,2.127,0,0,1,2304.417,4240.344Zm-17.094,2.258a2.319,2.319,0,0,1,.978-1.68,2.153,2.153,0,0,1,1.66-.579,2.131,2.131,0,0,1,1.062.6,11.743,11.743,0,0,0-3.159,2.894A2.106,2.106,0,0,1,2287.323,4242.6Zm9.866,17.649a9.377,9.377,0,1,1,9.358-9.377A9.378,9.378,0,0,1,2297.189,4260.252Zm4.2-6.811a1.161,1.161,0,1,1-1.643,1.641l-3.381-3.387a1.16,1.16,0,0,1-.339-.82v-6.248a1.161,1.161,0,0,1,2.322,0v5.767Z" transform="translate(4954.066 -9444.98)"/></g></svg>