<svg xmlns="http://www.w3.org/2000/svg" width="30" height="30" viewBox="0 0 30 30"><defs><style>.a{fill:none;}</style></defs><g transform="translate(-7236 5209)"><rect class="a" width="30" height="30" transform="translate(7236 -5209)"/><path d="M20.483,0H.931A.931.931,0,0,0,0,.931V12.817a.918.918,0,0,0,.931.915h10.94V17.69a.98.98,0,0,0,.662.874,1.076,1.076,0,0,0,.346.057.966.966,0,0,0,.723-.337l3.863-4.551h3.018a.918.918,0,0,0,.931-.915V.931A.931.931,0,0,0,20.483,0m-.931,11.871H17.033a1.048,1.048,0,0,0-.762.337l-2.539,2.944V12.817a.863.863,0,0,0-.829-.947H1.862V1.862h17.69ZM4.338,5.121a.931.931,0,0,1,.931-.931h6.74a.931.931,0,0,1,0,1.862H5.269a.931.931,0,0,1-.931-.931m10.218.712a.93.93,0,0,1,.658-1.587.927.927,0,0,1,.659.272.931.931,0,1,1-1.317,1.315" transform="translate(7239.896 -5201.713)"/></g></svg>