<svg xmlns="http://www.w3.org/2000/svg" width="30" height="30" viewBox="0 0 30 30"><defs><style>.a{fill:none;}</style></defs><g transform="translate(-7236 5209)"><rect class="a" width="30" height="30" transform="translate(7236 -5209)"/><path d="M2871.825,923.4l-3.359,3.411-.293.3a1.057,1.057,0,0,1-1.507,0l-.371-.377-3.281-3.332a1.057,1.057,0,0,1,1.507-1.483l2.041,2.073a7.333,7.333,0,0,0-7.221-6.876,7.137,7.137,0,0,0-4.087,1.291,1.057,1.057,0,0,1-1.211-1.733,9.241,9.241,0,0,1,5.3-1.672h.018a9.447,9.447,0,0,1,9.338,8.564l1.62-1.646a1.057,1.057,0,0,1,1.507,1.483Zm-8.232,7.124a1.06,1.06,0,0,0-.173.1,7.138,7.138,0,0,1-4.088,1.291,7.333,7.333,0,0,1-7.221-6.876l2.041,2.073a1.057,1.057,0,0,0,1.507-1.483l-3.281-3.332-.371-.377a1.057,1.057,0,0,0-1.507,0l-.292.3-3.359,3.411a1.057,1.057,0,0,0,1.507,1.483l1.621-1.646a9.447,9.447,0,0,0,9.337,8.564h.019a9.242,9.242,0,0,0,5.3-1.672,1.056,1.056,0,0,0-1.037-1.83Z" transform="translate(4391.663 -6118.508)"/></g></svg>