<svg xmlns="http://www.w3.org/2000/svg" width="30" height="30" viewBox="0 0 30 30"><defs><style>.a{fill:none;}</style></defs><g transform="translate(-7236 5209)"><rect class="a" width="30" height="30" transform="translate(7236 -5209)"/><path d="M21.763.1a1.063,1.063,0,0,0-1.068.092l-3.971,2.94V.969A.885.885,0,0,0,15.859,0H.97A.97.97,0,0,0,0,.969V13.088a.97.97,0,0,0,.97.969h14.89a.885.885,0,0,0,.864-.969V10.924l3.971,2.94a1.048,1.048,0,0,0,.608.194,1.023,1.023,0,0,0,.446-.1.981.981,0,0,0,.549-.867V.969A.969.969,0,0,0,21.763.1M14.785,12.119H1.939V1.939H14.785Zm5.575-.97L16.966,8.583V5.474l3.393-2.566Z" transform="translate(7239.701 -5201)"/></g></svg>