<svg xmlns="http://www.w3.org/2000/svg" width="30" height="30" viewBox="0 0 30 30"><defs><style>.a{fill:none;}</style></defs><g transform="translate(-7236 5209)"><rect class="a" width="30" height="30" transform="translate(7236 -5209)"/><path d="M12.078,26.077c-3.23,0-8.036-1.8-9.57-1.932C.794,23.993,0,24.009,0,23.019V12.394c0-1.364,2.42-1.6,2.909-1.98.08-.062,1.474-.994,3.381-2.133A10.289,10.289,0,0,0,10.68,3.63C11.161,2.1,11.818,0,13.952,0a2.453,2.453,0,0,1,2.282,1.708c.886,2.2-.047,5.259-1.6,7.677,1.048.267,2.348.615,3.112.875a3.675,3.675,0,0,1,2.565,2.992,4.4,4.4,0,0,1-1.845,3.963c-1,2.973-2.756,7.686-4.029,8.457a4.993,4.993,0,0,1-2.354.405M2.093,21.97c3.287.554,10.145,2.23,11.3,1.73.61-.6,2.143-4.38,3.212-7.59a1.126,1.126,0,0,1,.4-.556c.865-.63,1.313-1.35,1.229-1.977a1.521,1.521,0,0,0-1.121-1.152c-1.314-.448-4.538-1.222-4.57-1.23a1.084,1.084,0,0,1-.773-.77A1.2,1.2,0,0,1,12,9.315c2.351-2.743,2.767-5.569,2.312-6.7-.139-.347-.285-.347-.363-.347-.516,0-.757.391-1.29,2.092C12.039,6.349,9.884,8.722,7.3,10.267A37.912,37.912,0,0,0,3.915,12.5l-1.822.664Z" transform="translate(7241.287 -5207.458)"/></g></svg>