<svg xmlns="http://www.w3.org/2000/svg" width="30" height="30" viewBox="0 0 30 30">
  <g id="Icon-Megaphone" transform="translate(-7236 5209)">
    <rect id="Rectangle_3284" data-name="Rectangle 3284" width="30" height="30" transform="translate(7236 -5209)" fill="none"/>
    <path id="Path_11337" data-name="Path 11337" d="M24.427,8.351a2.844,2.844,0,0,0-1.435-1.8,4.381,4.381,0,0,0-2.722-.287L18.706.774a1.068,1.068,0,0,0-1.821-.42c-3.822,4.261-5.393,5.3-9.6,7.149L3.98,8.456A5.546,5.546,0,0,0,.214,15.3,5.459,5.459,0,0,0,6.79,19.15L7.147,20.4a3.82,3.82,0,0,0,1.047,1.727l.556.526a1.067,1.067,0,1,0,1.468-1.55l-.556-.527a1.684,1.684,0,0,1-.461-.762l-.357-1.252,1.538-.443c4.428-.661,6.423-.614,11.84.934a1.068,1.068,0,0,0,1.32-1.319l-1.562-5.48a4.285,4.285,0,0,0,2.169-1.623,2.8,2.8,0,0,0,.279-2.284m-20.544,8.4a3.368,3.368,0,0,1-1.616-2.04,3.406,3.406,0,0,1,2.305-4.207l2.4-.692,1.1,3.873.758,2.659-2.409.694a3.315,3.315,0,0,1-2.544-.287m10.871-1.172a27.992,27.992,0,0,0-3.828.306L9.369,10.425,8.986,9.082a22.122,22.122,0,0,0,8.19-5.888L20.97,16.5a24.058,24.058,0,0,0-6.216-.921m7.575-6.064a2.065,2.065,0,0,1-.938.676l-.53-1.858a2.122,2.122,0,0,1,1.148.11.7.7,0,0,1,.365.491.663.663,0,0,1-.045.582" transform="translate(7238.79 -5206.014)"/>
  </g>
</svg>
