<svg xmlns="http://www.w3.org/2000/svg" width="30" height="30" viewBox="0 0 30 30"><defs><style>.a{fill:none;}</style></defs><g transform="translate(-7236 5209)"><rect class="a" width="30" height="30" transform="translate(7236 -5209)"/><path d="M3908.215,485.745v12.784a1.228,1.228,0,0,1-1.245,1.224h-4.037l-5.167,6.086a1.292,1.292,0,0,1-.967.451,1.438,1.438,0,0,1-.463-.076,1.31,1.31,0,0,1-.885-1.169v-5.292h-11.207a1.228,1.228,0,0,1-1.245-1.224V485.745a1.245,1.245,0,0,1,1.245-1.245h22.725A1.245,1.245,0,0,1,3908.215,485.745Zm-2.491,1.245h-20.233v10.273h11.343a1.154,1.154,0,0,1,1.108,1.266v3.121l3.4-3.936a1.4,1.4,0,0,1,1.018-.451h3.368Z" transform="translate(3354.962 -5687.816)"/></g></svg>