<svg xmlns="http://www.w3.org/2000/svg" width="30" height="30" viewBox="0 0 30 30">
  <g id="Icon-PieChart" transform="translate(-7236 5209)">
    <rect id="Rectangle_3284" data-name="Rectangle 3284" width="30" height="30" transform="translate(7236 -5209)" fill="none"/>
    <path id="XMLID_1_" d="M8.471,9.379H.882A.893.893,0,0,1,0,8.5,8.495,8.495,0,0,1,8.471,0a.893.893,0,0,1,.882.882V8.471A.868.868,0,0,1,8.471,9.379ZM1.84,7.589H7.614V1.84A6.688,6.688,0,0,0,1.84,7.589ZM12.379,23.195A10.6,10.6,0,0,1,1.563,12.833a1.011,1.011,0,0,1,1.008-1.008h9.253V2.572a1.011,1.011,0,0,1,1.008-1.008c5.622,0,10.362,4.942,10.362,10.816A10.846,10.846,0,0,1,12.379,23.195ZM3.656,13.841a8.649,8.649,0,0,0,8.723,7.337A8.824,8.824,0,0,0,13.841,3.656v9.177a1.011,1.011,0,0,1-1.008,1.008Z" transform="translate(7239.378 -5205.792)"/>
  </g>
</svg>
