<svg xmlns="http://www.w3.org/2000/svg" width="30" height="30" viewBox="0 0 30 30"><defs><style>.a{fill:none;}</style></defs><g transform="translate(-7236 5209)"><rect class="a" width="30" height="30" transform="translate(7236 -5209)"/><path d="M16.588,9.324a1.007,1.007,0,0,1-1.077.916H1.077A1.007,1.007,0,0,1,0,9.324a1.007,1.007,0,0,1,1.077-.917H15.511a1.007,1.007,0,0,1,1.077.917M20.465,0H1.077A1.007,1.007,0,0,0,0,.916a1.007,1.007,0,0,0,1.077.917H20.465A1.007,1.007,0,0,0,21.542.916,1.007,1.007,0,0,0,20.465,0m0,12.5H1.077A1.007,1.007,0,0,0,0,13.418a1.007,1.007,0,0,0,1.077.917H20.465a1.007,1.007,0,0,0,1.077-.917,1.007,1.007,0,0,0-1.077-.917M1.077,6.044H12.223A1.007,1.007,0,0,0,13.3,5.127a1.007,1.007,0,0,0-1.077-.917H1.077A1.007,1.007,0,0,0,0,5.127a1.007,1.007,0,0,0,1.077.917" transform="translate(7240.368 -5200.999)"/></g></svg>