<svg xmlns="http://www.w3.org/2000/svg" width="30" height="30" viewBox="0 0 30 30"><defs><style>.a{fill:none;}</style></defs><g transform="translate(-7236 5209)"><rect class="a" width="30" height="30" transform="translate(7236 -5209)"/><path d="M983.113,3909.023l-2.974,10.369a1.739,1.739,0,0,1-1.67,1.213H967.017a1.82,1.82,0,0,1-1.689-1.128l-3.91-12.991h-2.188a1.228,1.228,0,0,1,0-2.456h3.036a1.268,1.268,0,0,1,1.152.825l4.09,13.294h10.446l2.316-8.287H968.255a1.228,1.228,0,0,1,0-2.456h13.687a1.252,1.252,0,0,1,.99.521A1.231,1.231,0,0,1,983.113,3909.023Zm-15.472,13.22a2.019,2.019,0,0,0-1.412.579,1.977,1.977,0,0,0,0,2.8,2.006,2.006,0,0,0,2.821,0,1.981,1.981,0,0,0-1.409-3.384Zm9.788,0a2.013,2.013,0,0,0-1.412.579,1.977,1.977,0,0,0,0,2.8,1.989,1.989,0,1,0,1.412-3.384Z" transform="translate(6280.083 -9108.529)"/></g></svg>