<svg xmlns="http://www.w3.org/2000/svg" width="30" height="30" viewBox="0 0 30 30"><defs><style>.a{fill:none;}</style></defs><g transform="translate(-7236 5209)"><rect class="a" width="30" height="30" transform="translate(7236 -5209)"/><path d="M1.438,10.833H4.985A1.432,1.432,0,0,0,6.412,9.4V1.433A1.432,1.432,0,0,0,4.985,0H1.439A1.432,1.432,0,0,0,.012,1.434V9.4a1.432,1.432,0,0,0,1.427,1.433m.679-8.727H4.306V8.727H2.117Zm7.277,8.727h3.547A1.432,1.432,0,0,0,14.369,9.4V1.433A1.432,1.432,0,0,0,12.942,0H9.4A1.432,1.432,0,0,0,7.968,1.434V9.4a1.432,1.432,0,0,0,1.427,1.433m.679-8.727h2.189V8.727H10.074Zm7.277,8.775H20.9a1.432,1.432,0,0,0,1.427-1.433V1.481A1.432,1.432,0,0,0,20.9.048H17.351a1.432,1.432,0,0,0-1.427,1.434V9.448a1.432,1.432,0,0,0,1.427,1.433m.679-8.727h2.189V8.775H18.03ZM6.424,13.951a1.182,1.182,0,0,1-1.183,1.182H1.183a1.182,1.182,0,1,1,0-2.365H5.242a1.182,1.182,0,0,1,1.183,1.182m7.956,0A1.182,1.182,0,0,1,13.2,15.133H9.139a1.182,1.182,0,1,1,0-2.365H13.2a1.182,1.182,0,0,1,1.183,1.182m7.956,0a1.182,1.182,0,0,1-1.183,1.182H17.095a1.182,1.182,0,1,1,0-2.365h4.059a1.182,1.182,0,0,1,1.183,1.182" transform="translate(7239.607 -5201.424)"/></g></svg>