<svg xmlns="http://www.w3.org/2000/svg" width="30" height="30" viewBox="0 0 30 30"><defs><style>.a{fill:none;}</style></defs><g transform="translate(-7236 5209)"><rect class="a" width="30" height="30" transform="translate(7236 -5209)"/><path d="M21.4,21.5H1.06A1.058,1.058,0,0,1,.011,20.291c.024-.162.615-3.974,4.134-5.141,1.175-.394,3-1.378,3.191-2.238.066-.305-.129-.676-.581-1.1A7.144,7.144,0,0,1,4.489,6.881a6.3,6.3,0,0,1,1.8-4.727A7.029,7.029,0,0,1,11.231,0a7.029,7.029,0,0,1,4.945,2.154,6.3,6.3,0,0,1,1.8,4.727,7.143,7.143,0,0,1-2.266,4.929c-.452.425-.647.8-.581,1.1.188.86,2.016,1.844,3.192,2.239,3.518,1.167,4.109,4.979,4.133,5.141A1.058,1.058,0,0,1,21.4,21.5M2.488,19.385H19.975a3.951,3.951,0,0,0-2.326-2.231h0c-.677-.226-4.082-1.466-4.592-3.791a3.205,3.205,0,0,1,1.217-3.109l.047-.041A4.975,4.975,0,0,0,15.856,6.8a4.242,4.242,0,0,0-1.208-3.18,4.935,4.935,0,0,0-3.417-1.5,4.935,4.935,0,0,0-3.417,1.5A4.241,4.241,0,0,0,6.607,6.8a4.972,4.972,0,0,0,1.542,3.421l.041.036a3.207,3.207,0,0,1,1.217,3.109c-.51,2.324-3.914,3.565-4.592,3.791a3.951,3.951,0,0,0-2.327,2.231" transform="translate(7239.667 -5206.007)"/></g></svg>