<svg xmlns="http://www.w3.org/2000/svg" viewBox="0 0 172.06 57.06"><defs><style>.cls-1{fill:#fd7278;}</style></defs><g id="Layer_2" data-name="Layer 2"><g id="Layer_1-2" data-name="Layer 1"><path class="cls-1" d="M172.06,9.42q0-4.74-1.71-7.08A5.16,5.16,0,0,0,166.06,0q-5.35,0-8.55,8.4a76.2,76.2,0,0,0-4.35,19.74,16.5,16.5,0,0,0-7.92,3.15A18.19,18.19,0,0,0,139.66,38a19.46,19.46,0,0,0-2,8.88c0,.24,0,.47,0,.7l-.24.14a17.2,17.2,0,0,1-4.82,1.86,6.07,6.07,0,0,1-5.8-1.3,23,23,0,0,0,7.94-8.75,9.68,9.68,0,0,0,.47-7.69,7.54,7.54,0,0,0-3.83-4.61,7.63,7.63,0,0,0-6-.12,12.17,12.17,0,0,0-5.91,4.28,14.2,14.2,0,0,0-2.7,6.94,22.42,22.42,0,0,0,.39,7.75c.08.38.16.72.24,1.06-1,.72-1.78,1.31-2.46,1.72a7,7,0,0,1-3.1,1.26c-1.16,0-1.39-.84-1.74-2.4-.17-.79-.5-2.69-.78-4.93a120.58,120.58,0,0,0,8.44-17.93A45.71,45.71,0,0,0,121,9.42q0-4.74-1.71-7.08A5.14,5.14,0,0,0,115,0q-5.34,0-8.55,8.4a77,77,0,0,0-4.35,19.74,16.54,16.54,0,0,0-7.92,3.15A18.39,18.39,0,0,0,88.63,38a19.58,19.58,0,0,0-2,8.88c0,.36,0,.72,0,1.06a19,19,0,0,1-1.84,1,10.81,10.81,0,0,1-3.87.9c-1.32.19-4.38-.8-5-2.18-.07-.14-.14-.28-.2-.42a11,11,0,0,1-.42-1.69A91.71,91.71,0,0,0,86,26.88q4-9.42,4-16.56,0-5-1.65-7.65A5.09,5.09,0,0,0,83.78,0Q78.68,0,75,6.72A56.6,56.6,0,0,0,69.41,22.8a85.31,85.31,0,0,0-1.89,16.68,36.58,36.58,0,0,0,.37,5.31,9.72,9.72,0,0,1-3.55,2.91,17.15,17.15,0,0,1-4.81,1.86,6.1,6.1,0,0,1-5.81-1.3,22.9,22.9,0,0,0,8-8.75,9.72,9.72,0,0,0,.47-7.69,7.18,7.18,0,0,0-9.78-4.73,12.13,12.13,0,0,0-5.91,4.28,14.2,14.2,0,0,0-2.7,6.94,22.18,22.18,0,0,0,.39,7.75c.08.38.15.72.23,1.06a30,30,0,0,1-2.46,1.72,6.93,6.93,0,0,1-3.09,1.26q-1.74,0-1.74-2.4a41.64,41.64,0,0,1,1.14-6.9,48.22,48.22,0,0,0,1.32-8.46q0-3.9-3.9-3.9-3.18,0-6.84,3.36T22.14,42.54q.18-1.08.66-3.24a38,38,0,0,0,1.14-7,4.27,4.27,0,0,0-.87-2.94,3.86,3.86,0,0,0-3-1A8.12,8.12,0,0,0,15.63,30,18.23,18.23,0,0,0,11,34.86a32.47,32.47,0,0,0-3.87,7.92,41.58,41.58,0,0,1,.6-4.41q.36-1.77,1-4.17a22.87,22.87,0,0,0,.9-4.32,1.24,1.24,0,0,0-.48-1.14,3.38,3.38,0,0,0-1.68-.3A6.24,6.24,0,0,0,4,29.25,4.51,4.51,0,0,0,2.22,31.8,48.86,48.86,0,0,0,0,46.62,23,23,0,0,0,.93,54.3a3.28,3.28,0,0,0,3.21,2.4,3.45,3.45,0,0,0,2.73-1A9.36,9.36,0,0,0,8.4,51.9a53.11,53.11,0,0,1,2.07-6.6,31,31,0,0,1,2.67-5.52q1.38-2.16,2.28-2.16.66,0,.66,1,0,1.2-.48,5a51.93,51.93,0,0,0-.6,6.6,9.79,9.79,0,0,0,1,4.59,3.18,3.18,0,0,0,3,1.89,3.6,3.6,0,0,0,2.79-1,9.15,9.15,0,0,0,1.53-3.84,43.1,43.1,0,0,1,2.34-7,29.48,29.48,0,0,1,2.88-5.31q1.44-2,2.22-2t.66,1a31.05,31.05,0,0,1-.78,5.22,37.46,37.46,0,0,0-.84,6,7.53,7.53,0,0,0,1.56,5.13,5.83,5.83,0,0,0,4.62,1.77,14.42,14.42,0,0,0,6.49-1.49,16.3,16.3,0,0,0,4.23-3c.24.29.5.57.79.86a11.17,11.17,0,0,0,8.43,3.64,17.39,17.39,0,0,0,8.67-2.28,25.76,25.76,0,0,0,4.39-3.05A12.57,12.57,0,0,0,71.45,55a8.4,8.4,0,0,0,5.67,2,19.86,19.86,0,0,0,7.8-1.25,15.32,15.32,0,0,0,3.84-2c.07.09.13.18.2.26a7.63,7.63,0,0,0,6,2.73,9,9,0,0,0,4.23-1,14.2,14.2,0,0,0,4-3.59,7.81,7.81,0,0,0,1.59,2.78,5.83,5.83,0,0,0,4.62,1.77,12.86,12.86,0,0,0,6.1-1.49,16.47,16.47,0,0,0,4.23-3c.24.29.49.57.78.86a11.17,11.17,0,0,0,8.43,3.64,17.39,17.39,0,0,0,8.67-2.28c.66-.37,1.27-.74,1.85-1.13.17.24.35.46.54.68a7.62,7.62,0,0,0,6,2.73,9,9,0,0,0,4.22-1A14.63,14.63,0,0,0,154.36,52l0,.24A9.73,9.73,0,0,0,156.24,56a3.83,3.83,0,0,0,2.86,1c2.19,0,3.3-.9,3.3-2.7a5.82,5.82,0,0,0-.24-1.62A78.41,78.41,0,0,1,160.24,43a122.15,122.15,0,0,0,8.58-18.18A45.71,45.71,0,0,0,172.06,9.42ZM50.63,36.65q.6-2.94,2.7-3.67a2.17,2.17,0,0,1,1.84.09,2.64,2.64,0,0,1,1.2,1.52A5,5,0,0,1,55.72,39a13.78,13.78,0,0,1-4.48,4.1A12,12,0,0,1,50.63,36.65ZM76.28,23.28a81.84,81.84,0,0,1,3.06-12.36q1.74-5,3.12-5,1.68,0,1.68,4.56a38.57,38.57,0,0,1-2.52,12.87,77.32,77.32,0,0,1-6.78,14.07A89.47,89.47,0,0,1,76.28,23.28Zm34.82-8.52q1.53-8.88,3.27-8.88.54,0,.93,1.26a12.53,12.53,0,0,1,.39,3.54q0,9-6.66,23.4A164,164,0,0,1,111.1,14.76Zm-11.7,35a3.63,3.63,0,0,1-2.31.9q-3,0-3-4.38a13.87,13.87,0,0,1,2.16-7.56,9.62,9.62,0,0,1,5.46-4.38q-.06,1-.06,2.88a66.71,66.71,0,0,0,.6,9.06A17,17,0,0,1,99.4,49.74Zm24.29-13.09q.59-2.94,2.69-3.67a2.17,2.17,0,0,1,1.84.09,2.64,2.64,0,0,1,1.2,1.52,5,5,0,0,1-.65,4.36,13.58,13.58,0,0,1-4.48,4.1A12,12,0,0,1,123.69,36.65Zm26.74,13.09a3.67,3.67,0,0,1-2.32.9q-3,0-3-4.38a13.8,13.8,0,0,1,2.17-7.56,9.59,9.59,0,0,1,5.46-4.38q-.06,1-.06,2.88a65.14,65.14,0,0,0,.6,9.06A17.67,17.67,0,0,1,150.43,49.74Zm9.63-15.66a164.08,164.08,0,0,1,2.06-19.32c1-5.92,2.11-8.88,3.28-8.88.36,0,.66.42.92,1.26a12.47,12.47,0,0,1,.4,3.54Q166.72,19.68,160.06,34.08Z"/></g></g></svg>