<svg xmlns="http://www.w3.org/2000/svg" viewBox="0 0 174.9 57.06"><defs><style>.cls-1{fill:#fd7278;}</style></defs><g id="Layer_2" data-name="Layer 2"><g id="Layer_1-2" data-name="Layer 1"><path class="cls-1" d="M174.9,9.42q0-4.74-1.71-7.08A5.14,5.14,0,0,0,168.9,0q-5.34,0-8.55,8.4A77,77,0,0,0,156,28.14a16.54,16.54,0,0,0-7.92,3.15A18.39,18.39,0,0,0,142.5,38a19.56,19.56,0,0,0-2,8.54,20.35,20.35,0,0,1-3.34,2.29A13.12,13.12,0,0,1,131,50.7q-4.2,0-5.7-2.76,7.08-1.74,10.05-4.71a9.7,9.7,0,0,0,3-7.11,7.52,7.52,0,0,0-2.1-5.61,7.6,7.6,0,0,0-5.58-2.07,12.15,12.15,0,0,0-7,2.1,14.25,14.25,0,0,0-4.83,5.67,17.36,17.36,0,0,0-1.74,7.71,18.75,18.75,0,0,0,.18,2.54,26.36,26.36,0,0,1-2.22,2.2,5.13,5.13,0,0,1-3.3,1.44,2.38,2.38,0,0,1-2.07-1.5,13.1,13.1,0,0,1-1.05-5,116.77,116.77,0,0,0,8.82-18.48q3.3-9,3.3-15.72,0-4.74-1.71-7.08A5.14,5.14,0,0,0,114.72,0q-5.22,0-8.43,8.25a75.44,75.44,0,0,0-4.35,19.89,16.31,16.31,0,0,0-8,3.09A18.2,18.2,0,0,0,88.32,38a19.76,19.76,0,0,0-2,8.91,1.55,1.55,0,0,0,0,.22,19.37,19.37,0,0,1-1.81,1.61,7,7,0,0,1-4.32,1.41,3.25,3.25,0,0,1-2.52-1.05,7,7,0,0,1-1.38-3.51A91.71,91.71,0,0,0,87,26.88q4-9.42,4-16.56,0-5-1.65-7.65A5.09,5.09,0,0,0,84.78,0Q79.68,0,76,6.72A56.6,56.6,0,0,0,70.41,22.8a85.31,85.31,0,0,0-1.89,16.68,37.4,37.4,0,0,0,.35,5.25,20.26,20.26,0,0,1-5.18,4.08,13.12,13.12,0,0,1-6.15,1.89q-4.2,0-5.7-2.76,7.08-1.74,10-4.71a9.7,9.7,0,0,0,3-7.11,7.52,7.52,0,0,0-2.1-5.61,7.6,7.6,0,0,0-5.58-2.07,12.15,12.15,0,0,0-7,2.1,14.25,14.25,0,0,0-4.83,5.67,17.77,17.77,0,0,0-1.55,10.26c-.83.9-1.54,1.63-2.14,2.16a4.69,4.69,0,0,1-2.85,1.47q-1.74,0-1.74-2.4a41.64,41.64,0,0,1,1.14-6.9,48.22,48.22,0,0,0,1.32-8.46q0-3.9-3.9-3.9-3.18,0-6.84,3.36T22.14,42.54q.18-1.08.66-3.24a38,38,0,0,0,1.14-7,4.27,4.27,0,0,0-.87-2.94,3.86,3.86,0,0,0-3-1A8.12,8.12,0,0,0,15.63,30,18.23,18.23,0,0,0,11,34.86a32.47,32.47,0,0,0-3.87,7.92,41.58,41.58,0,0,1,.6-4.41q.36-1.77,1-4.17a22.87,22.87,0,0,0,.9-4.32,1.24,1.24,0,0,0-.48-1.14,3.38,3.38,0,0,0-1.68-.3A6.24,6.24,0,0,0,4,29.25,4.51,4.51,0,0,0,2.22,31.8,48.86,48.86,0,0,0,0,46.62,23,23,0,0,0,.93,54.3a3.28,3.28,0,0,0,3.21,2.4,3.45,3.45,0,0,0,2.73-1A9.36,9.36,0,0,0,8.4,51.9a53.11,53.11,0,0,1,2.07-6.6,31,31,0,0,1,2.67-5.52q1.38-2.16,2.28-2.16.66,0,.66,1,0,1.2-.48,5a51.93,51.93,0,0,0-.6,6.6,9.79,9.79,0,0,0,1,4.59,3.18,3.18,0,0,0,3,1.89,3.6,3.6,0,0,0,2.79-1,9.15,9.15,0,0,0,1.53-3.84,43.1,43.1,0,0,1,2.34-7,29.48,29.48,0,0,1,2.88-5.31q1.44-2,2.22-2t.66,1a31.05,31.05,0,0,1-.78,5.22,37.46,37.46,0,0,0-.84,6,7.53,7.53,0,0,0,1.56,5.13,5.83,5.83,0,0,0,4.62,1.77,11.64,11.64,0,0,0,6.75-2A25.63,25.63,0,0,0,46,51.94a10.24,10.24,0,0,0,1.14,1.34q3.48,3.42,9.78,3.42a17.39,17.39,0,0,0,8.67-2.28,24.61,24.61,0,0,0,5-3.61c.17.37.34.74.53,1.09a8.33,8.33,0,0,0,7.83,4.8,12,12,0,0,0,6.87-2A23.88,23.88,0,0,0,87.92,53a8.59,8.59,0,0,0,.73,1,7.63,7.63,0,0,0,6,2.73,8.73,8.73,0,0,0,4.41-1.08,17.24,17.24,0,0,0,4.41-4.26q2.4,5.34,7,5.34a9.91,9.91,0,0,0,5.82-2.13,27.51,27.51,0,0,0,3.11-2.64,11.25,11.25,0,0,0,1.15,1.35q3.48,3.42,9.78,3.42A17.39,17.39,0,0,0,139,54.42a29.4,29.4,0,0,0,2.86-1.83,8.85,8.85,0,0,0,1,1.38,7.63,7.63,0,0,0,6,2.73,9,9,0,0,0,4.23-1A14.49,14.49,0,0,0,157.2,52l.06.24A9.73,9.73,0,0,0,159.09,56a3.79,3.79,0,0,0,2.85,1q3.3,0,3.3-2.7a5.48,5.48,0,0,0-.24-1.62A80.29,80.29,0,0,1,163.08,43a121.16,121.16,0,0,0,8.58-18.18A45.71,45.71,0,0,0,174.9,9.42Zm-65.07,11.1a73.94,73.94,0,0,1,2-10.59q1.14-4,2.28-4,.54,0,.93,1.26a12.53,12.53,0,0,1,.39,3.54q0,8.88-6.72,23.52Q109,27.06,109.83,20.52ZM50.88,43.14a12,12,0,0,1,1.53-6.24q1.53-2.58,3.75-2.58a2.2,2.2,0,0,1,1.71.69,2.61,2.61,0,0,1,.63,1.83,5,5,0,0,1-2,3.9,13.63,13.63,0,0,1-5.58,2.52Zm26.4-19.86a81.84,81.84,0,0,1,3.06-12.36q1.74-5,3.12-5,1.68,0,1.68,4.56a38.57,38.57,0,0,1-2.52,12.87,77.32,77.32,0,0,1-6.78,14.07A89.47,89.47,0,0,1,77.28,23.28ZM99.06,49.71a3.61,3.61,0,0,1-2.28.93q-3,0-3-4.38A13.59,13.59,0,0,1,96,38.73a10.05,10.05,0,0,1,5.49-4.41q-.12,3.24-.12,4.68a40.05,40.05,0,0,0,.6,7.26A17.58,17.58,0,0,1,99.06,49.71Zm25.26-6.57a12,12,0,0,1,1.53-6.24q1.53-2.58,3.75-2.58a2.2,2.2,0,0,1,1.71.69,2.61,2.61,0,0,1,.63,1.83,5,5,0,0,1-2,3.9,13.63,13.63,0,0,1-5.58,2.52Zm29,6.6a3.63,3.63,0,0,1-2.31.9q-3,0-3-4.38a13.87,13.87,0,0,1,2.16-7.56,9.62,9.62,0,0,1,5.46-4.38q-.06,1-.06,2.88a66.71,66.71,0,0,0,.6,9.06A17,17,0,0,1,153.27,49.74Zm9.63-15.66A164,164,0,0,1,165,14.76q1.53-8.88,3.27-8.88.54,0,.93,1.26a12.53,12.53,0,0,1,.39,3.54Q169.56,19.68,162.9,34.08Z"/></g></g></svg>