<svg xmlns="http://www.w3.org/2000/svg" width="30" height="30" viewBox="0 0 30 30">
  <g id="Icon-Box" transform="translate(-7236 5209)">
    <rect id="Rectangle_3284" data-name="Rectangle 3284" width="30" height="30" transform="translate(7236 -5209)" fill="none"/>
    <g id="Group_7069" data-name="Group 7069" transform="translate(7236 -5209.343)">
      <rect id="Rectangle_3243" data-name="Rectangle 3243" width="30" height="30" transform="translate(0 0.343)" fill="none"/>
      <path id="Path_11888" data-name="Path 11888" d="M-858.547,2450.528a2.026,2.026,0,0,1-.923-.235q-4.765-2.392-9.537-4.77a1.857,1.857,0,0,1-1.109-1.8q0-1.96,0-3.92v-3.18q0-1.939,0-3.879a1.876,1.876,0,0,1,1.123-1.824q4.772-2.378,9.538-4.767a2,2,0,0,1,.909-.231,2,2,0,0,1,.91.231q4.765,2.39,9.538,4.768a1.88,1.88,0,0,1,1.123,1.824q-.006,5.489,0,10.979a1.86,1.86,0,0,1-1.11,1.8q-4.771,2.379-9.537,4.77A2.029,2.029,0,0,1-858.547,2450.528Zm-9.7-17.115a.071.071,0,0,0-.039.011.075.075,0,0,0-.037.06l-.006.08c0,.045-.006.079-.006.113v2.192q0,3.863-.005,7.726a.424.424,0,0,0,.291.423q2.672,1.33,5.341,2.668l3.148,1.573a.073.073,0,0,0,.034.009.074.074,0,0,0,.038-.01.075.075,0,0,0,.038-.061l.007-.088c0-.047.007-.081.007-.115v-2.271q0-3.824.005-7.646a.425.425,0,0,0-.291-.423q-3.1-1.547-6.2-3.1l-2.008-1c-.058-.029-.118-.056-.182-.085l-.1-.045A.069.069,0,0,0-868.247,2433.413Zm19.458,0a.077.077,0,0,0-.032.007l-.1.045c-.065.029-.125.056-.183.085l-1.861.932q-3.173,1.587-6.349,3.172a.424.424,0,0,0-.291.423q.008,3.894.006,7.786v2.132c0,.034,0,.068.007.115l.007.088a.075.075,0,0,0,.038.061.075.075,0,0,0,.038.01.073.073,0,0,0,.034-.009l3.115-1.556q2.687-1.344,5.375-2.685a.423.423,0,0,0,.291-.423q-.008-3.881-.005-7.762v-2.155c0-.034,0-.068-.006-.113l-.006-.08a.075.075,0,0,0-.037-.06A.071.071,0,0,0-848.789,2433.413Zm-4.872-3.277a.075.075,0,0,0-.035.008c-.923.473-2.744,1.4-4.565,2.318-1.956.983-3.068,1.531-3.836,1.895a.077.077,0,0,0-.043.068.076.076,0,0,0,.042.069l1.015.508q1.122.561,2.243,1.123a.639.639,0,0,0,.293.079.672.672,0,0,0,.3-.083q2.893-1.455,5.791-2.9l2.034-1.017c.058-.029.114-.062.18-.1l.106-.061a.077.077,0,0,0,.038-.065.077.077,0,0,0-.038-.066l-.083-.049c-.05-.03-.09-.053-.131-.073l-3.28-1.641A.075.075,0,0,0-853.661,2430.135Zm-4.88-2.374a.581.581,0,0,0-.249.052c-.956.468-1.907.945-2.859,1.422l-5.328,2.662a.077.077,0,0,0-.042.066.075.075,0,0,0,.039.068l.126.072c.073.042.129.074.188.1l2.817,1.41a.078.078,0,0,0,.034.007.075.075,0,0,0,.028,0c1.02-.411,5.047-2.429,8.476-4.181a.075.075,0,0,0,.041-.068.074.074,0,0,0-.042-.068l-.059-.03q-1.471-.733-2.942-1.465A.529.529,0,0,0-858.541,2427.762Z" transform="translate(873.58 -2422.688)"/>
    </g>
  </g>
</svg>
