<svg xmlns="http://www.w3.org/2000/svg" width="30" height="30" viewBox="0 0 30 30"><defs><style>.a{fill:none;}</style></defs><g transform="translate(-7236 5209)"><rect class="a" width="30" height="30" transform="translate(7236 -5209)"/><path d="M22.963,8.258l-.009-.419C22.9,5.531,22.028,4.5,20.114,4.5a7.242,7.242,0,0,0-.959.069c0-.029,0-.059-.007-.088-.02-.251-.04-.511-.081-.767a2.6,2.6,0,0,0-2.581-2.433,3.312,3.312,0,0,0-.7.078,1.974,1.974,0,0,1-.411.053c-.29,0-.479-.11-.779-.451A2.748,2.748,0,0,0,12.511,0a2.666,2.666,0,0,0-2.429,1.558c-.2.435-.353.467-.573.467A3.414,3.414,0,0,1,9.161,2,4.327,4.327,0,0,0,8.7,1.973,2.637,2.637,0,0,0,5.948,4.857c-.022.814-.017,1.64-.012,2.439,0,.343,0,.686,0,1.029v6.95l-.074-.094c-.291-.368-.521-.658-.775-.938A3.1,3.1,0,0,0,2.8,13.17a2.815,2.815,0,0,0-2.443,4.2,76.232,76.232,0,0,0,4.523,7.943,9.461,9.461,0,0,0,7.217,4.33,15.9,15.9,0,0,0,1.8.107h0c5.456,0,8.651-3.168,9-8.922.252-4.182.16-8.448.07-12.574M2.251,15.167a1.051,1.051,0,0,1,.571-.185,1.3,1.3,0,0,1,.958.562c.574.724,1.144,1.472,1.7,2.2l.366.48a1.294,1.294,0,0,0,.977.671,1.031,1.031,0,0,0,.376-.076.983.983,0,0,0,.548-1.121c0-.059,0-.118,0-.175q.008-4.58,0-9.161V4.908c0-.519.17-1.14,1.014-1.151.8,0,.972.617.972,1.135l0,7.213c0,.191,0,.382,0,.573-.012,1,.591,1.141.851,1.154l.068,0c.878,0,.88-.9.881-1.192q.005-2.51,0-5.021V5.06c0-.6,0-1.208,0-1.812.012-.98.287-1.362.98-1.362h.043c.71.016.973.4.97,1.41q-.009,3.117,0,6.234v2.53c0,.211,0,.429.008.646.018.329.062,1.1.863,1.126h.049c.613,0,.923-.392.923-1.166V4.88c0-.088,0-.177,0-.265,0-.2,0-.394,0-.59a.84.84,0,0,1,.855-.9c.055-.005.108-.008.16-.008a.75.75,0,0,1,.827.705,9.109,9.109,0,0,1,.14,1.429c.011,2.03.009,4.094.007,6.089v1.94c-.005.414-.014,1.108.8,1.158.032,0,.063,0,.093,0a.759.759,0,0,0,.771-.465,1.994,1.994,0,0,0,.1-.764v-.051q0-.8,0-1.6c0-1.075,0-2.15.006-3.225a8.8,8.8,0,0,1,.1-1.192c.084-.591.377-.891.872-.891.035,0,.07,0,.106,0a.922.922,0,0,1,.875,1.026c.025,1.05.026,2.12.026,3.155q0,.521,0,1.043,0,1.073,0,2.146v.944q0,.946,0,1.892c0,1.365.007,2.776-.007,4.164-.045,4.613-2.75,7.258-7.422,7.258h-.149A8.309,8.309,0,0,1,5.9,23.572c-1.466-2.444-2.837-4.95-3.867-6.859-.372-.691-.3-1.21.22-1.545" transform="translate(7238.408 -5209)"/></g></svg>