<svg xmlns="http://www.w3.org/2000/svg" width="30" height="30" viewBox="0 0 30 30"><defs><style>.a{fill:none;}</style></defs><g transform="translate(-7236 5209)"><rect class="a" width="30" height="30" transform="translate(7236 -5209)"/><path d="M22.195,0H3.114A2.11,2.11,0,0,0,1,2.1V14.352a2.228,2.228,0,0,0,2.114,2.235H9.039v1.137L6.921,19.4a1.252,1.252,0,0,0-.376,1.333,1.189,1.189,0,0,0,1.06.826H17.625a1.212,1.212,0,0,0,1.08-.83,1.181,1.181,0,0,0-.347-1.3L16.268,17.72V16.587h5.927a2.227,2.227,0,0,0,2.113-2.235V2.1A2.109,2.109,0,0,0,22.195,0M14.669,19.009l.672.618H9.866l.723-.622a1.146,1.146,0,0,0,.4-.82v-1.6h3.336v1.6a1.092,1.092,0,0,0,.347.825m7.414-4.634H3.224V2.212H22.083Z" transform="translate(7238.667 -5203.225)"/></g></svg>