<svg xmlns="http://www.w3.org/2000/svg" width="30" height="30" viewBox="0 0 30 30">
  <g id="Icon-ShoppingBag" transform="translate(-7236 5209)">
    <rect id="Rectangle_3284" data-name="Rectangle 3284" width="30" height="30" transform="translate(7236 -5209)" fill="none"/>
    <path id="Path_12032" data-name="Path 12032" d="M1098.633,3896.665a1.059,1.059,0,0,0-.735-.324h-4.157v-.474a5.5,5.5,0,0,0-5.4-5.5h-.11a5.5,5.5,0,0,0-5.4,5.5v.474h-4.156a1.074,1.074,0,0,0-1.039,1.079v15.287a1.039,1.039,0,0,0,1.039,1.039h19.218a1.04,1.04,0,0,0,1.039-1.039l.005-15.3A1.064,1.064,0,0,0,1098.633,3896.665Zm-13.724-.8a3.423,3.423,0,0,1,3.322-3.423h.11a3.422,3.422,0,0,1,3.322,3.423v.474h-6.754Zm11.945,15.8h-17.141v-13.249h3.117v1.8a1.039,1.039,0,0,0,2.078,0v-1.8h6.754v1.8a1.039,1.039,0,0,0,2.078,0v-1.8h3.117Z" transform="translate(6162.714 -9097.056)"/>
  </g>
</svg>
