<svg xmlns="http://www.w3.org/2000/svg" width="30" height="30" viewBox="0 0 30 30"><defs><style>.a{fill:none;}</style></defs><g transform="translate(-7236 5209)"><rect class="a" width="30" height="30" transform="translate(7236 -5209)"/><g transform="translate(6916 -5985)"><path d="M16.93,5.343H.891a.95.95,0,0,0-.891,1,.95.95,0,0,0,.891,1H16.93a.95.95,0,0,0,.891-1,.95.95,0,0,0-.891-1" transform="translate(326 778.57)"/><path d="M16.93,5.343H.891a.95.95,0,0,0-.891,1,.95.95,0,0,0,.891,1H16.93a.95.95,0,0,0,.891-1,.95.95,0,0,0-.891-1" transform="translate(326 784.657)"/><path d="M16.93,5.343H.891a.95.95,0,0,0-.891,1,.95.95,0,0,0,.891,1H16.93a.95.95,0,0,0,.891-1,.95.95,0,0,0-.891-1" transform="translate(326 790.657)"/></g></g></svg>