<svg xmlns="http://www.w3.org/2000/svg" width="30" height="30" viewBox="0 0 30 30"><defs><style>.a{fill:none;}</style></defs><g transform="translate(-7236 5209)"><rect class="a" width="30" height="30" transform="translate(7236 -5209)"/><path d="M11.947,2.555c.24,0,.482.009.72.027.031,0,.063,0,.094,0a1.2,1.2,0,0,0,1.192-1.111A1.2,1.2,0,0,0,12.845.189c-.3-.022-.6-.033-.9-.033A11.948,11.948,0,0,0,3.065,20.1a1.2,1.2,0,0,0,1.7.089,1.2,1.2,0,0,0,.089-1.695,9.548,9.548,0,0,1,7.1-15.934m.813-.159c-.026,0-.053,0-.08,0a1.026,1.026,0,0,0,.148,0c-.023,0-.045.007-.068.007m6.391-.432.052-.108a1.287,1.287,0,0,0-.591-1.7A1.386,1.386,0,0,0,16.829.61l-6.568,10.1a2.175,2.175,0,0,0-.109,2.3,2.052,2.052,0,0,0,1.754,1h.059a2.564,2.564,0,0,0,2.227-1.814L19.151,1.964ZM17.978.189c.039,0,.078,0,.117.007a1.221,1.221,0,0,0-.175,0c.019,0,.038,0,.057,0M11.906,13.813c-.037,0-.073-.005-.109-.007.05,0,.1.008.151.007h-.042m9.71-8.73a1.2,1.2,0,0,0-.971-.494,1.2,1.2,0,0,0-.97,1.906,9.551,9.551,0,0,1-.6,11.964,1.2,1.2,0,1,0,1.791,1.6,11.951,11.951,0,0,0,.751-14.973m-.991-.3.02,0c.017,0,.034.005.051.006-.023,0-.047,0-.07,0" transform="translate(7238.985 -5204.502)"/></g></svg>