<svg xmlns="http://www.w3.org/2000/svg" width="30" height="30" viewBox="0 0 30 30"><defs><style>.a{fill:none;}</style></defs><g transform="translate(-7236 5209)"><rect class="a" width="30" height="30" transform="translate(7236 -5209)"/><path d="M2841.476,2521.046a1.322,1.322,0,0,1,1.322-1.322h9.5a1.322,1.322,0,0,1,0,2.644h-9.5A1.322,1.322,0,0,1,2841.476,2521.046Zm10.821,7.145h-9.5a1.323,1.323,0,0,0,0,2.644h9.5a1.323,1.323,0,0,0,0-2.644Zm0,8.461h-9.5a1.323,1.323,0,0,0,0,2.644h9.5a1.322,1.322,0,0,0,0-2.644Zm-17.756-13.77a1.29,1.29,0,0,0-1.825,0L2827,2528.6a1.29,1.29,0,0,0,0,1.825l5.719,5.718a1.29,1.29,0,0,0,1.825-1.825l-4.807-4.805,4.807-4.806A1.29,1.29,0,0,0,2834.541,2522.882Z" transform="translate(10092.619 -2664.704) rotate(180)"/></g></svg>