<svg xmlns="http://www.w3.org/2000/svg" width="30" height="30" viewBox="0 0 30 30">
  <g id="Icon-Organisation" transform="translate(-7236 5209)">
    <rect id="Rectangle_3284" data-name="Rectangle 3284" width="30" height="30" transform="translate(7236 -5209)" fill="none"/>
    <path id="Path_12033" data-name="Path 12033" d="M3761.591,4441.178h-5.984a.977.977,0,0,1-.977-.977v-6.351h-2.443v6.351a.977.977,0,0,1-.977.977h-6.228a.977.977,0,0,1-.977-.977v-8.06h-1.466c-.986,0-1.6-.326-1.812-.969-.322-.955.593-1.848,1.191-2.31l10.66-9.422a.976.976,0,0,1,1.294,0l2.4,2.125a.977.977,0,0,1-1.294,1.464l-1.758-1.553-9.855,8.71h1.612a.977.977,0,0,1,.977.977v8.06h4.274v-6.351a.977.977,0,0,1,.977-.977h4.4a.977.977,0,0,1,.977.977v6.351h4.03v-8.06a.977.977,0,0,1,.977-.977h1.487l-4.535-3.939a.978.978,0,0,1-.336-.738v-3.719a.977.977,0,1,1,1.954,0v3.274l4.377,3.8c.577.464,1.474,1.371,1.141,2.322-.152.435-.582.952-1.767.952h-1.343v8.06A.977.977,0,0,1,3761.591,4441.178Z" transform="translate(3497.794 -9625.187)"/>
  </g>
</svg>
