<svg xmlns="http://www.w3.org/2000/svg" width="80" height="80" viewBox="0 0 80 80">
  <g id="Group_7541" data-name="Group 7541" transform="translate(3852 13490)">
    <path id="Path_12038" data-name="Path 12038" d="M2107.948,3132h-44.54a4.413,4.413,0,0,0-4.408,4.408v25.7a4.662,4.662,0,0,0,4.408,4.689h14.73v2.386l-4.418,3.523a2.634,2.634,0,0,0-.783,2.8,2.484,2.484,0,0,0,2.212,1.734h20.9a2.53,2.53,0,0,0,2.253-1.742,2.485,2.485,0,0,0-.723-2.727l-4.361-3.593V3166.8h14.731a4.661,4.661,0,0,0,4.407-4.689v-25.7A4.412,4.412,0,0,0,2107.948,3132Zm-18.067,39.88,1.4,1.3h-11.42l1.507-1.306a2.41,2.41,0,0,0,.828-1.721V3166.8h6.959v3.353A2.3,2.3,0,0,0,2089.881,3171.88Zm17.835-9.722H2063.64V3136.64h44.076Z" transform="translate(-5897.678 -16603.982)"/>
    <rect id="Rectangle_3484" data-name="Rectangle 3484" width="80" height="80" transform="translate(-3852 -13490)" fill="none"/>
  </g>
</svg>
