<svg xmlns="http://www.w3.org/2000/svg" width="30" height="30" viewBox="0 0 30 30">
  <g id="Icon-Blocks" transform="translate(-7236 5209)">
    <rect id="Rectangle_3284" data-name="Rectangle 3284" width="30" height="30" transform="translate(7236 -5209)" fill="none"/>
    <path id="Path_12034" data-name="Path 12034" d="M-1154.4,3650.66h-6.422a1.323,1.323,0,0,1-1.325-1.319v-5.068a1.323,1.323,0,0,1,1.325-1.318h6.422a1.323,1.323,0,0,1,1.325,1.318v5.068A1.323,1.323,0,0,1-1154.4,3650.66Zm-5.864-1.884h5.306v-3.937h-5.306Zm17.508,1.884h-6.422a1.324,1.324,0,0,1-1.325-1.319v-5.068a1.323,1.323,0,0,1,1.325-1.318h6.422a1.323,1.323,0,0,1,1.325,1.318v5.068A1.323,1.323,0,0,1-1142.758,3650.66Zm-5.864-1.884h5.306v-3.937h-5.306Zm-5.78,12.071h-6.422a1.324,1.324,0,0,1-1.325-1.319v-5.068a1.323,1.323,0,0,1,1.325-1.319h6.422a1.324,1.324,0,0,1,1.325,1.319v5.068A1.323,1.323,0,0,1-1154.4,3660.847Zm-5.864-1.884h5.306v-3.938h-5.306Zm17.508,1.884h-6.422a1.324,1.324,0,0,1-1.325-1.319v-5.068a1.324,1.324,0,0,1,1.325-1.319h6.422a1.323,1.323,0,0,1,1.325,1.319v5.068A1.323,1.323,0,0,1-1142.758,3660.847Zm-5.864-1.884h5.306v-3.938h-5.306Z" transform="translate(8402.792 -8845.902)"/>
  </g>
</svg>
