<svg xmlns="http://www.w3.org/2000/svg" width="80" height="80" viewBox="0 0 80 80">
  <g id="Group_7540" data-name="Group 7540" transform="translate(3978 13490)">
    <path id="Path_12037" data-name="Path 12037" d="M1869.539,3167.547a1.658,1.658,0,0,1-1.658,1.658h-2.871a1.658,1.658,0,0,1,0-3.315h2.871A1.658,1.658,0,0,1,1869.539,3167.547Zm17.351,4.089a4.2,4.2,0,0,1-4.2,4.2H1850.2a4.2,4.2,0,0,1-4.2-4.2V3129.2a4.2,4.2,0,0,1,4.2-4.2h32.491a4.2,4.2,0,0,1,4.2,4.2Zm-36.469-42.216v30.392h32.049V3129.42Zm32.049,42v-8.289H1850.42v8.289Z" transform="translate(-5804.631 -16600.232)"/>
    <rect id="Rectangle_3485" data-name="Rectangle 3485" width="80" height="80" transform="translate(-3978 -13490)" fill="none"/>
  </g>
</svg>
