<svg xmlns="http://www.w3.org/2000/svg" width="30" height="30" viewBox="0 0 30 30">
  <g id="Icon-Bell" transform="translate(-7236 5209)">
    <rect id="Rectangle_3284" data-name="Rectangle 3284" width="30" height="30" transform="translate(7236 -5209)" fill="none"/>
    <path id="Bell" d="M21.754,19.508c-1.828,0-2.537-1.064-2.537-7.748,0-5.238-2.374-8.512-6.466-9V1.091a1.091,1.091,0,1,0-2.183,0V2.728c-4.365.355-6.9,3.683-6.9,9.031,0,6.684-.791,7.748-2.646,7.748A1.056,1.056,0,0,0-.1,20.544,1.026,1.026,0,0,0,.964,21.581H8.058a4.405,4.405,0,0,0,.982,2.537,2.95,2.95,0,0,0,2.237.982,3.048,3.048,0,0,0,2.237-.982,4.6,4.6,0,0,0,1.064-2.537h7.175a1.033,1.033,0,0,0,1.091-1.037A1.049,1.049,0,0,0,21.754,19.508Zm-9.767,3.11a.818.818,0,0,1-.655.273.8.8,0,0,1-.628-.273,1.847,1.847,0,0,1-.409-1.064H12.45A1.845,1.845,0,0,1,11.986,22.618ZM11.523,19.4H4.784c1.009-1.91,1.009-4.884,1.009-7.667,0-4.447,1.937-6.794,5.429-6.794h.3c3.492,0,5.429,2.346,5.429,6.794,0,2.783,0,5.757,1.009,7.667Z" transform="translate(7239.639 -5206.865)"/>
  </g>
</svg>
