<svg xmlns="http://www.w3.org/2000/svg" width="310" height="156" viewBox="0 0 310 156">
  <g id="Group_7564" data-name="Group 7564" transform="translate(-25 -1357)">
    <rect id="Rectangle_3341" data-name="Rectangle 3341" width="310" height="156" rx="6" transform="translate(25 1357)" fill="#f4f7f8"/>
    <path id="Path_11939" data-name="Path 11939" d="M7.7-9.87H9.394V0H8.036L2.744-6.888V0H1.064V-9.87H2.408L7.7-3ZM14.49.112a3.767,3.767,0,0,1-1.841-.434,3,3,0,0,1-1.225-1.246,3.95,3.95,0,0,1-.434-1.89,3.909,3.909,0,0,1,.434-1.883A3.013,3.013,0,0,1,12.649-6.58a3.767,3.767,0,0,1,1.841-.434,3.767,3.767,0,0,1,1.841.434,2.969,2.969,0,0,1,1.218,1.239,3.962,3.962,0,0,1,.427,1.883,4,4,0,0,1-.427,1.89A2.96,2.96,0,0,1,16.331-.322,3.767,3.767,0,0,1,14.49.112Zm-.014-1.358a1.569,1.569,0,0,0,1.3-.56,2.6,2.6,0,0,0,.448-1.652A2.607,2.607,0,0,0,15.778-5.1,1.545,1.545,0,0,0,14.49-5.67a1.565,1.565,0,0,0-1.3.567,2.578,2.578,0,0,0-.455,1.645,2.6,2.6,0,0,0,.448,1.652A1.553,1.553,0,0,0,14.476-1.246ZM23.212,0V-6.846h1.75V0Zm-.1-10.024h1.932V-8.3H23.114ZM34.9-7.014a2.124,2.124,0,0,1,1.736.693A3.279,3.279,0,0,1,37.212-4.2V0h-1.75V-4.13A1.93,1.93,0,0,0,35.2-5.271a1,1,0,0,0-.854-.357,1.337,1.337,0,0,0-1.092.476,2.036,2.036,0,0,0-.392,1.33V0h-1.75V-4.13a1.971,1.971,0,0,0-.259-1.141.992.992,0,0,0-.861-.357,1.321,1.321,0,0,0-1.078.476,2.036,2.036,0,0,0-.392,1.33V0h-1.75V-6.846h1.708v.966a2.046,2.046,0,0,1,.854-.847,2.638,2.638,0,0,1,1.246-.287,1.991,1.991,0,0,1,2.058,1.288,2.338,2.338,0,0,1,.924-.945A2.666,2.666,0,0,1,34.9-7.014Zm7.028,0a2.916,2.916,0,0,1,2.142.7,2.937,2.937,0,0,1,.7,2.156V0H43.106V-1.05a1.827,1.827,0,0,1-.749.854,2.247,2.247,0,0,1-1.183.308,2.747,2.747,0,0,1-1.246-.28,2.217,2.217,0,0,1-.882-.77,1.946,1.946,0,0,1-.322-1.092,1.73,1.73,0,0,1,.385-1.19,2.314,2.314,0,0,1,1.253-.63,11.411,11.411,0,0,1,2.394-.2h.35v-.322a1.407,1.407,0,0,0-.3-1.008,1.36,1.36,0,0,0-1-.308,3.766,3.766,0,0,0-1.141.189,5.77,5.77,0,0,0-1.169.525L39-6.174a5.436,5.436,0,0,1,1.386-.6A5.48,5.48,0,0,1,41.93-7.014Zm-.406,5.866a1.5,1.5,0,0,0,1.141-.469,1.7,1.7,0,0,0,.441-1.211v-.294h-.252a9.658,9.658,0,0,0-1.456.084,1.414,1.414,0,0,0-.742.294.749.749,0,0,0-.224.574.96.96,0,0,0,.308.735A1.1,1.1,0,0,0,41.524-1.148Zm11.69-5.7V-.63a3.164,3.164,0,0,1-.889,2.436,3.729,3.729,0,0,1-2.625.826A6.364,6.364,0,0,1,47.978,2.4a4.865,4.865,0,0,1-1.442-.651l.49-1.232a5.023,5.023,0,0,0,2.632.77A1.6,1.6,0,0,0,51.478-.5v-.9a2.138,2.138,0,0,1-.9.889A2.8,2.8,0,0,1,49.238-.2a2.967,2.967,0,0,1-1.589-.427,2.934,2.934,0,0,1-1.085-1.2A3.867,3.867,0,0,1,46.172-3.6a3.97,3.97,0,0,1,.385-1.785,2.863,2.863,0,0,1,1.085-1.2,3,3,0,0,1,1.6-.427,2.8,2.8,0,0,1,1.344.315,2.138,2.138,0,0,1,.9.889V-6.846ZM49.7-1.554A1.633,1.633,0,0,0,51.009-2.1a2.224,2.224,0,0,0,.469-1.5,2.247,2.247,0,0,0-.469-1.512A1.633,1.633,0,0,0,49.7-5.656a1.638,1.638,0,0,0-1.3.546A2.225,2.225,0,0,0,47.922-3.6,2.208,2.208,0,0,0,48.4-2.107,1.628,1.628,0,0,0,49.7-1.554ZM61.026-3.108H56.364a2.129,2.129,0,0,0,.574,1.414,1.964,1.964,0,0,0,1.4.462A3.3,3.3,0,0,0,60.41-1.96l.5,1.2a3.675,3.675,0,0,1-1.2.63,4.6,4.6,0,0,1-1.449.238A3.63,3.63,0,0,1,55.615-.84a3.476,3.476,0,0,1-.973-2.6,4,4,0,0,1,.42-1.862,3.054,3.054,0,0,1,1.183-1.26,3.35,3.35,0,0,1,1.729-.448,2.853,2.853,0,0,1,2.233.91A3.61,3.61,0,0,1,61.026-3.6Zm-3.01-2.674a1.485,1.485,0,0,0-1.127.448,2.179,2.179,0,0,0-.525,1.288h3.164a2,2,0,0,0-.42-1.3A1.385,1.385,0,0,0,58.016-5.782Z" transform="translate(148 1437)" fill="#919191"/>
  </g>
</svg>
